<?xml version="1.0" encoding="iso-8859-1"?>
<!-- Generator: Adobe Illustrator 19.0.0, SVG Export Plug-In . SVG Version: 6.00 Build 0)  -->
<svg version="1.1" id="Capa_1" xmlns="http://www.w3.org/2000/svg" xmlns:xlink="http://www.w3.org/1999/xlink" x="0px" y="0px"
	 viewBox="0 0 512.002 512.002" style="enable-background:new 0 0 512.002 512.002;" xml:space="preserve">
<path style="fill:#FFDC64;" d="M289.605,250.838c-3.024-4.319-7.976-6.895-13.25-6.895l-40.387,0.464l27.79-76.419
	c1.565-4.286-0.653-9.024-4.935-10.585c-4.298-1.56-9.024,0.657-10.581,4.94l-27.79,76.415c-1.806,4.956-1.081,10.488,1.944,14.806
	c3.024,4.319,7.976,6.895,13.25,6.895l40.387-0.464l-18.675,51.354l-0.148-0.987c-0.669-4.504-4.831-7.621-9.387-6.944
	c-4.516,0.673-7.621,4.875-6.952,9.387l5.274,35.258c0.468,3.105,2.653,5.677,5.637,6.641c0.831,0.266,1.685,0.395,2.532,0.395
	c2.194,0,4.339-0.875,5.919-2.5l24.847-25.56c3.177-3.274,3.105-8.5-0.161-11.681c-3.2-3.109-8.271-3.065-11.457,0.018
	l18.086-49.732C293.355,260.688,292.629,255.156,289.605,250.838z"/>
<path style="fill:#00C3FF;" d="M146.645,231.229H90.839c-4.565,0-8.258-3.698-8.258-8.258s3.694-8.258,8.258-8.258h55.806
	c4.347,0,8.605-1.762,11.677-4.839l17.516-17.516c3.226-3.226,8.452-3.226,11.677,0c3.226,3.226,3.226,8.452,0,11.677L170,221.551
	C163.855,227.7,155.347,231.229,146.645,231.229z"/>
<path style="fill:#E6646E;" d="M206.452,289.035c-2.113,0-4.226-0.806-5.839-2.419L183.097,269.1
	c-3.073-3.077-7.331-4.839-11.677-4.839H82.581c-4.565,0-8.258-3.698-8.258-8.258s3.694-8.258,8.258-8.258h88.839
	c8.702,0,17.21,3.528,23.355,9.677l17.516,17.516c3.226,3.226,3.226,8.452,0,11.677
	C210.677,288.229,208.565,289.035,206.452,289.035z"/>
<path style="fill:#FFDC64;" d="M173.419,330.325c-2.113,0-4.226-0.806-5.839-2.419l-25.774-25.774
	c-3.073-3.077-7.331-4.839-11.677-4.839h-39.29c-4.565,0-8.258-3.698-8.258-8.258s3.694-8.258,8.258-8.258h39.29
	c8.702,0,17.21,3.528,23.355,9.677l25.774,25.774c3.226,3.226,3.226,8.452,0,11.677
	C177.645,329.519,175.532,330.325,173.419,330.325z"/>
<path style="fill:#5D5360;" d="M121.452,307.971l-11.677-11.677c-3.195-3.197-7.127-5.34-11.403-6.394
	c-2.299-0.567-4.129-2.315-5.188-4.433l-8.688-17.375c-1.184-2.368-1.009-5.19,0.46-7.393l12.124-18.187
	c1.271-1.907,1.584-4.296,0.847-6.466l-4.198-12.36c-1.08-3.18,0.118-6.684,2.923-8.532c5.931-3.907,15.282-10.086,15.282-10.086
	c3.798-2.528,4.823-7.657,2.29-11.452c-2.532-3.802-7.653-4.835-11.452-2.29L84.24,203.681c-2.713,1.809-5.901,2.774-9.163,2.774
	H8.258c-4.561,0-8.258,3.697-8.258,8.258v82.581c0,4.561,3.697,8.258,8.258,8.258h84c2.189,0,4.289,0.87,5.837,2.418l11.679,11.679
	c1.613,1.613,3.726,2.419,5.839,2.419s4.226-0.806,5.839-2.419C124.677,316.422,124.677,311.196,121.452,307.971z"/>
<path style="fill:#4B3F4E;" d="M0,297.293c0,4.56,3.697,8.258,8.258,8.258h84c2.19,0,4.289,0.869,5.837,2.418l11.679,11.679
	c1.613,1.613,3.726,2.419,5.839,2.419s4.226-0.806,5.839-2.419c3.226-3.226,3.226-8.452,0-11.677l-11.677-11.677
	c-3.195-3.197-7.127-5.34-11.403-6.394c-2.299-0.567-4.129-2.315-5.188-4.433l-6.474-12.948H0V297.293z"/>
<g>
	<circle style="fill:#EBC9A0;" cx="181.68" cy="198.191" r="8.258"/>
	<circle style="fill:#EBC9A0;" cx="173.42" cy="322.071" r="8.258"/>
	<circle style="fill:#EBC9A0;" cx="206.45" cy="280.781" r="8.258"/>
</g>
<path style="fill:#FFDC64;" d="M365.355,280.777h55.806c4.565,0,8.258,3.698,8.258,8.258s-3.694,8.258-8.258,8.258h-55.806
	c-4.347,0-8.605,1.762-11.677,4.839l-17.516,17.516c-3.226,3.226-8.452,3.226-11.677,0c-3.226-3.226-3.226-8.452,0-11.677
	L342,290.454C348.145,284.305,356.653,280.777,365.355,280.777z"/>
<path style="fill:#E6646E;" d="M305.548,222.971c2.113,0,4.226,0.806,5.839,2.419l17.516,17.516
	c3.073,3.077,7.331,4.839,11.677,4.839h88.839c4.565,0,8.258,3.698,8.258,8.258s-3.694,8.258-8.258,8.258H340.58
	c-8.702,0-17.21-3.528-23.355-9.677l-17.516-17.516c-3.226-3.226-3.226-8.452,0-11.677
	C301.323,223.777,303.435,222.971,305.548,222.971z"/>
<path style="fill:#00C3FF;" d="M338.581,181.68c2.113,0,4.226,0.806,5.839,2.419l25.774,25.774
	c3.073,3.077,7.331,4.839,11.677,4.839h39.29c4.565,0,8.258,3.698,8.258,8.258s-3.694,8.258-8.258,8.258h-39.29
	c-8.702,0-17.21-3.528-23.355-9.677l-25.774-25.774c-3.226-3.226-3.226-8.452,0-11.677
	C334.355,182.487,336.468,181.68,338.581,181.68z"/>
<path style="fill:#5D5360;" d="M390.548,204.035l11.677,11.677c3.195,3.197,7.127,5.34,11.403,6.394
	c2.299,0.567,4.129,2.315,5.188,4.433l8.688,17.375c1.184,2.369,1.009,5.19-0.46,7.393l-12.124,18.187
	c-1.271,1.907-1.584,4.296-0.847,6.466l4.198,12.36c1.08,3.18-0.118,6.684-2.923,8.532c-5.931,3.907-15.282,10.086-15.282,10.086
	c-3.798,2.528-4.823,7.657-2.29,11.452c2.532,3.802,7.653,4.835,11.452,2.29l18.532-12.355c2.713-1.809,5.901-2.774,9.163-2.774
	h66.821c4.561,0,8.258-3.697,8.258-8.258v-82.581c0-4.561-3.697-8.258-8.258-8.258h-84c-2.189,0-4.289-0.87-5.837-2.418
	l-11.679-11.679c-1.613-1.613-3.726-2.419-5.839-2.419c-2.113,0-4.226,0.806-5.839,2.419
	C387.323,195.583,387.323,200.809,390.548,204.035z"/>
<g>
	<circle style="fill:#EBC9A0;" cx="330.32" cy="313.811" r="8.258"/>
	<circle style="fill:#EBC9A0;" cx="338.58" cy="189.941" r="8.258"/>
	<circle style="fill:#EBC9A0;" cx="305.55" cy="231.231" r="8.258"/>
</g>
<path style="fill:#4B3F4E;" d="M413.784,272.519c-0.168,1.143-0.094,2.319,0.288,3.442l4.198,12.36
	c1.08,3.18-0.119,6.684-2.923,8.532c-5.93,3.907-15.282,10.086-15.282,10.086c-3.798,2.528-4.823,7.657-2.29,11.452
	c2.532,3.802,7.653,4.835,11.452,2.29l18.532-12.355c2.714-1.809,5.901-2.774,9.162-2.774h66.822c4.56,0,8.258-3.698,8.258-8.258
	V272.52h-98.217V272.519z"/>
<g>
</g>
<g>
</g>
<g>
</g>
<g>
</g>
<g>
</g>
<g>
</g>
<g>
</g>
<g>
</g>
<g>
</g>
<g>
</g>
<g>
</g>
<g>
</g>
<g>
</g>
<g>
</g>
<g>
</g>
</svg>
